<svg width="800" height="600" xmlns="http://www.w3.org/2000/svg">
 <!-- Created with Method Draw - http://github.com/duopixel/Method-Draw/ -->
 <g>
  <title>Layer 1</title>
  <path id="svg_6" d="m160,115.75616l0,0c0,-31.10459 24.62434,-56.31985 54.99999,-56.31985l25.00001,0l0,0l120.00001,0l224.99996,0c14.58694,0 28.5764,5.93367 38.89092,16.4957c10.31446,10.56203 16.10911,24.88721 16.10911,39.82415l0,140.79963l0,0l0,84.47975l0,0c0,31.10461 -24.62432,56.31985 -55.00001,56.31985l-224.99996,0l-156.76521,143.20828l36.7652,-143.20828l-25.00001,0c-30.37565,0 -54.99999,-25.21524 -54.99999,-56.31985l0,0l0,-84.47975l0,0l-0.00002,-140.79963z" stroke-width="1.5" stroke="#fff" fill="#000"/>
  <text font-style="normal" font-weight="bold" xml:space="preserve" text-anchor="start" font-family="sans-serif" font-size="250" id="svg_8" y="319.49254" x="309.72656" stroke-opacity="null" stroke-width="0" stroke="#000" fill="#ffffff">U</text>
 </g>
</svg>